<mxfile host="Electron" modified="2024-07-25T13:24:13.524Z" agent="Mozilla/5.0 (Macintosh; Intel Mac OS X 10_15_7) AppleWebKit/537.36 (KHTML, like Gecko) draw.io/24.6.4 Chrome/124.0.6367.207 Electron/30.0.6 Safari/537.36" etag="9sagFhNPhFCTCuYGghQJ" version="24.6.4" type="device">
  <diagram id="6iuWq0UelAJ61aAoiBDy" name="Library Managament System">
    <mxGraphModel dx="3660" dy="2448" grid="1" gridSize="10" guides="1" tooltips="1" connect="1" arrows="1" fold="1" page="0" pageScale="1" pageWidth="827" pageHeight="1169" math="0" shadow="0">
      <root>
        <mxCell id="0" />
        <mxCell id="1" parent="0" />
        <mxCell id="gvHln3FCuM-_E14BoruI-1" value="Book&lt;div&gt;&lt;br&gt;&lt;/div&gt;" style="swimlane;fontStyle=1;align=center;verticalAlign=top;childLayout=stackLayout;horizontal=1;startSize=26;horizontalStack=0;resizeParent=1;resizeParentMax=0;resizeLast=0;collapsible=1;marginBottom=0;whiteSpace=wrap;html=1;labelBackgroundColor=none;" parent="1" vertex="1">
          <mxGeometry x="-30" y="-340" width="360" height="290" as="geometry" />
        </mxCell>
        <mxCell id="gvHln3FCuM-_E14BoruI-2" value="- title: QString&lt;div&gt;- authors: QStringList&lt;/div&gt;&lt;div&gt;- isbn: QString&lt;/div&gt;&lt;div&gt;- publicationDate: QDate&lt;/div&gt;" style="text;strokeColor=none;fillColor=none;align=left;verticalAlign=top;spacingLeft=4;spacingRight=4;overflow=hidden;rotatable=0;points=[[0,0.5],[1,0.5]];portConstraint=eastwest;whiteSpace=wrap;html=1;labelBackgroundColor=none;" parent="gvHln3FCuM-_E14BoruI-1" vertex="1">
          <mxGeometry y="26" width="360" height="64" as="geometry" />
        </mxCell>
        <mxCell id="gvHln3FCuM-_E14BoruI-3" value="" style="line;strokeWidth=1;fillColor=none;align=left;verticalAlign=middle;spacingTop=-1;spacingLeft=3;spacingRight=3;rotatable=0;labelPosition=right;points=[];portConstraint=eastwest;labelBackgroundColor=none;" parent="gvHln3FCuM-_E14BoruI-1" vertex="1">
          <mxGeometry y="90" width="360" height="8" as="geometry" />
        </mxCell>
        <mxCell id="gvHln3FCuM-_E14BoruI-4" value="+ Book()&lt;div&gt;+ Book(t: QString, a: QStringList, i: QString, p: QDate)&lt;/div&gt;&lt;div&gt;+ setTitle(t: QString)&lt;/div&gt;&lt;div&gt;+ setAuthors(a: QStringList)&lt;/div&gt;&lt;div&gt;+ setIsbn(i: QString)&lt;/div&gt;&lt;div&gt;+ setPublicationDate(p: QDate)&lt;/div&gt;&lt;div&gt;+ getTitle(): QString&lt;/div&gt;&lt;div&gt;+ getAuthors(): QStringList&lt;/div&gt;&lt;div&gt;+ getIsbn(): QString&lt;/div&gt;&lt;div&gt;+ getPublicationDate(): QDate&lt;/div&gt;&lt;div&gt;+ obtainBookInfo()&lt;/div&gt;&lt;div&gt;+ saveBook(b: Book&amp;amp;)&lt;/div&gt;" style="text;strokeColor=none;fillColor=none;align=left;verticalAlign=top;spacingLeft=4;spacingRight=4;overflow=hidden;rotatable=0;points=[[0,0.5],[1,0.5]];portConstraint=eastwest;whiteSpace=wrap;html=1;labelBackgroundColor=none;" parent="gvHln3FCuM-_E14BoruI-1" vertex="1">
          <mxGeometry y="98" width="360" height="192" as="geometry" />
        </mxCell>
        <mxCell id="gvHln3FCuM-_E14BoruI-26" value="&lt;div&gt;Author&lt;/div&gt;" style="swimlane;fontStyle=1;align=center;verticalAlign=top;childLayout=stackLayout;horizontal=1;startSize=26;horizontalStack=0;resizeParent=1;resizeParentMax=0;resizeLast=0;collapsible=1;marginBottom=0;whiteSpace=wrap;html=1;labelBackgroundColor=none;" parent="1" vertex="1">
          <mxGeometry x="-500" y="-310" width="360" height="170" as="geometry" />
        </mxCell>
        <mxCell id="gvHln3FCuM-_E14BoruI-27" value="- name: QString&lt;div&gt;- books: QList&amp;lt;Book*&amp;gt;&lt;/div&gt;" style="text;strokeColor=none;fillColor=none;align=left;verticalAlign=top;spacingLeft=4;spacingRight=4;overflow=hidden;rotatable=0;points=[[0,0.5],[1,0.5]];portConstraint=eastwest;whiteSpace=wrap;html=1;labelBackgroundColor=none;" parent="gvHln3FCuM-_E14BoruI-26" vertex="1">
          <mxGeometry y="26" width="360" height="34" as="geometry" />
        </mxCell>
        <mxCell id="gvHln3FCuM-_E14BoruI-28" value="" style="line;strokeWidth=1;fillColor=none;align=left;verticalAlign=middle;spacingTop=-1;spacingLeft=3;spacingRight=3;rotatable=0;labelPosition=right;points=[];portConstraint=eastwest;labelBackgroundColor=none;" parent="gvHln3FCuM-_E14BoruI-26" vertex="1">
          <mxGeometry y="60" width="360" height="8" as="geometry" />
        </mxCell>
        <mxCell id="gvHln3FCuM-_E14BoruI-29" value="+ Author()&lt;div&gt;+ Author(name: QString)&lt;/div&gt;&lt;div&gt;+ setName(name: QString)&lt;/div&gt;&lt;div&gt;+ getName(): QString&lt;/div&gt;&lt;div&gt;+ addBook(book: Book*)&lt;/div&gt;&lt;div&gt;+ getBooks(): QList&amp;lt;Book*&amp;gt;&lt;/div&gt;" style="text;strokeColor=none;fillColor=none;align=left;verticalAlign=top;spacingLeft=4;spacingRight=4;overflow=hidden;rotatable=0;points=[[0,0.5],[1,0.5]];portConstraint=eastwest;whiteSpace=wrap;html=1;labelBackgroundColor=none;" parent="gvHln3FCuM-_E14BoruI-26" vertex="1">
          <mxGeometry y="68" width="360" height="102" as="geometry" />
        </mxCell>
        <mxCell id="gvHln3FCuM-_E14BoruI-30" value="" style="endArrow=diamondThin;endFill=1;endSize=24;html=1;rounded=0;" parent="1" source="gvHln3FCuM-_E14BoruI-26" target="gvHln3FCuM-_E14BoruI-1" edge="1">
          <mxGeometry width="160" relative="1" as="geometry">
            <mxPoint x="-490" y="434.96" as="sourcePoint" />
            <mxPoint x="116.07999999999993" y="69.99999999999997" as="targetPoint" />
          </mxGeometry>
        </mxCell>
        <mxCell id="gvHln3FCuM-_E14BoruI-32" value="" style="endArrow=diamondThin;endFill=1;endSize=24;html=1;rounded=0;" parent="1" source="gvHln3FCuM-_E14BoruI-65" target="gvHln3FCuM-_E14BoruI-1" edge="1">
          <mxGeometry width="160" relative="1" as="geometry">
            <mxPoint x="-130" y="228.9622641509436" as="sourcePoint" />
            <mxPoint x="490" y="540" as="targetPoint" />
          </mxGeometry>
        </mxCell>
        <mxCell id="gvHln3FCuM-_E14BoruI-35" value="" style="endArrow=diamondThin;endFill=1;endSize=24;html=1;rounded=0;" parent="1" source="gvHln3FCuM-_E14BoruI-61" target="gvHln3FCuM-_E14BoruI-51" edge="1">
          <mxGeometry width="160" relative="1" as="geometry">
            <mxPoint x="1510" y="135.608695652174" as="sourcePoint" />
            <mxPoint x="1340" y="139.79591836734699" as="targetPoint" />
          </mxGeometry>
        </mxCell>
        <mxCell id="gvHln3FCuM-_E14BoruI-51" value="&lt;div&gt;BookWriter&lt;/div&gt;" style="swimlane;fontStyle=1;align=center;verticalAlign=top;childLayout=stackLayout;horizontal=1;startSize=26;horizontalStack=0;resizeParent=1;resizeParentMax=0;resizeLast=0;collapsible=1;marginBottom=0;whiteSpace=wrap;html=1;labelBackgroundColor=none;" parent="1" vertex="1">
          <mxGeometry x="520" y="260" width="530" height="190" as="geometry" />
        </mxCell>
        <mxCell id="gvHln3FCuM-_E14BoruI-52" value="- fileName: QString&lt;div&gt;- fileWriter: FileWriter&lt;/div&gt;" style="text;strokeColor=none;fillColor=none;align=left;verticalAlign=top;spacingLeft=4;spacingRight=4;overflow=hidden;rotatable=0;points=[[0,0.5],[1,0.5]];portConstraint=eastwest;whiteSpace=wrap;html=1;labelBackgroundColor=none;" parent="gvHln3FCuM-_E14BoruI-51" vertex="1">
          <mxGeometry y="26" width="530" height="54" as="geometry" />
        </mxCell>
        <mxCell id="gvHln3FCuM-_E14BoruI-53" value="" style="line;strokeWidth=1;fillColor=none;align=left;verticalAlign=middle;spacingTop=-1;spacingLeft=3;spacingRight=3;rotatable=0;labelPosition=right;points=[];portConstraint=eastwest;labelBackgroundColor=none;" parent="gvHln3FCuM-_E14BoruI-51" vertex="1">
          <mxGeometry y="80" width="530" height="8" as="geometry" />
        </mxCell>
        <mxCell id="gvHln3FCuM-_E14BoruI-54" value="+ BookWriter(fileName: QString)&lt;div&gt;+ write(books: QList&amp;lt;Book*&amp;gt;): bool&lt;/div&gt;&lt;div&gt;&lt;br&gt;&lt;/div&gt;&lt;div&gt;- createBookElement(&amp;amp;doc: QDomDocument, *book: Book): QDomElement&lt;/div&gt;&lt;div&gt;- addCommonElements(&amp;amp;doc: QDomDocument, &amp;amp;bookElement: QDomElement, *book: Book)&lt;br&gt;&lt;div&gt;&lt;br&gt;&lt;/div&gt;&lt;/div&gt;" style="text;strokeColor=none;fillColor=none;align=left;verticalAlign=top;spacingLeft=4;spacingRight=4;overflow=hidden;rotatable=0;points=[[0,0.5],[1,0.5]];portConstraint=eastwest;whiteSpace=wrap;html=1;labelBackgroundColor=none;" parent="gvHln3FCuM-_E14BoruI-51" vertex="1">
          <mxGeometry y="88" width="530" height="102" as="geometry" />
        </mxCell>
        <mxCell id="gvHln3FCuM-_E14BoruI-60" value="" style="endArrow=diamondThin;endFill=1;endSize=24;html=1;rounded=0;" parent="1" source="gvHln3FCuM-_E14BoruI-1" target="gvHln3FCuM-_E14BoruI-74" edge="1">
          <mxGeometry width="160" relative="1" as="geometry">
            <mxPoint x="30" y="-260" as="sourcePoint" />
            <mxPoint x="540" y="81.40000000000009" as="targetPoint" />
          </mxGeometry>
        </mxCell>
        <mxCell id="gvHln3FCuM-_E14BoruI-61" value="&lt;div&gt;FileWriter&lt;/div&gt;" style="swimlane;fontStyle=1;align=center;verticalAlign=top;childLayout=stackLayout;horizontal=1;startSize=26;horizontalStack=0;resizeParent=1;resizeParentMax=0;resizeLast=0;collapsible=1;marginBottom=0;whiteSpace=wrap;html=1;labelBackgroundColor=none;" parent="1" vertex="1">
          <mxGeometry x="1280" y="300" width="360" height="130" as="geometry" />
        </mxCell>
        <mxCell id="gvHln3FCuM-_E14BoruI-62" value="- fileName: QString" style="text;strokeColor=none;fillColor=none;align=left;verticalAlign=top;spacingLeft=4;spacingRight=4;overflow=hidden;rotatable=0;points=[[0,0.5],[1,0.5]];portConstraint=eastwest;whiteSpace=wrap;html=1;labelBackgroundColor=none;" parent="gvHln3FCuM-_E14BoruI-61" vertex="1">
          <mxGeometry y="26" width="360" height="34" as="geometry" />
        </mxCell>
        <mxCell id="gvHln3FCuM-_E14BoruI-63" value="" style="line;strokeWidth=1;fillColor=none;align=left;verticalAlign=middle;spacingTop=-1;spacingLeft=3;spacingRight=3;rotatable=0;labelPosition=right;points=[];portConstraint=eastwest;labelBackgroundColor=none;" parent="gvHln3FCuM-_E14BoruI-61" vertex="1">
          <mxGeometry y="60" width="360" height="8" as="geometry" />
        </mxCell>
        <mxCell id="gvHln3FCuM-_E14BoruI-64" value="&lt;div&gt;+ FileWriter(fileName: QString)&lt;/div&gt;&lt;div&gt;+ write(contents: QString)&lt;/div&gt;" style="text;strokeColor=none;fillColor=none;align=left;verticalAlign=top;spacingLeft=4;spacingRight=4;overflow=hidden;rotatable=0;points=[[0,0.5],[1,0.5]];portConstraint=eastwest;whiteSpace=wrap;html=1;labelBackgroundColor=none;" parent="gvHln3FCuM-_E14BoruI-61" vertex="1">
          <mxGeometry y="68" width="360" height="62" as="geometry" />
        </mxCell>
        <mxCell id="gvHln3FCuM-_E14BoruI-65" value="&lt;div&gt;BookInput&lt;/div&gt;&lt;div&gt;&lt;br&gt;&lt;/div&gt;" style="swimlane;fontStyle=1;align=center;verticalAlign=top;childLayout=stackLayout;horizontal=1;startSize=26;horizontalStack=0;resizeParent=1;resizeParentMax=0;resizeLast=0;collapsible=1;marginBottom=0;whiteSpace=wrap;html=1;labelBackgroundColor=none;" parent="1" vertex="1">
          <mxGeometry x="-540" y="-70" width="410" height="250" as="geometry" />
        </mxCell>
        <mxCell id="gvHln3FCuM-_E14BoruI-66" value="- lineEditTitle: QLineEdit&lt;div&gt;- lineEditAuthors: QLineEdit&lt;/div&gt;&lt;div&gt;- lineEditIsbn: QLineEdit&lt;/div&gt;&lt;div&gt;- dateEditPublicationDate: QDateEdit&lt;/div&gt;&lt;div&gt;- pushButtonAdd: QPushButton&lt;/div&gt;&lt;div&gt;- pushButtonCancel: QPushButton&lt;/div&gt;" style="text;strokeColor=none;fillColor=none;align=left;verticalAlign=top;spacingLeft=4;spacingRight=4;overflow=hidden;rotatable=0;points=[[0,0.5],[1,0.5]];portConstraint=eastwest;whiteSpace=wrap;html=1;labelBackgroundColor=none;" parent="gvHln3FCuM-_E14BoruI-65" vertex="1">
          <mxGeometry y="26" width="410" height="94" as="geometry" />
        </mxCell>
        <mxCell id="gvHln3FCuM-_E14BoruI-67" value="" style="line;strokeWidth=1;fillColor=none;align=left;verticalAlign=middle;spacingTop=-1;spacingLeft=3;spacingRight=3;rotatable=0;labelPosition=right;points=[];portConstraint=eastwest;labelBackgroundColor=none;" parent="gvHln3FCuM-_E14BoruI-65" vertex="1">
          <mxGeometry y="120" width="410" height="8" as="geometry" />
        </mxCell>
        <mxCell id="gvHln3FCuM-_E14BoruI-68" value="&lt;div&gt;+ BookInput(bookList: BookList)&lt;/div&gt;&lt;div&gt;+ ~BookInput()&lt;/div&gt;&lt;div&gt;&lt;br&gt;&lt;/div&gt;&lt;div&gt;- setupUI()&lt;/div&gt;&lt;div&gt;- setupButtons()&lt;/div&gt;&lt;div&gt;- setupInputValidation()&lt;/div&gt;&lt;div&gt;- isValidInput(title: QString, authors: QStringList, isbn: QString): bool&lt;/div&gt;&lt;div&gt;&lt;br&gt;&lt;/div&gt;" style="text;strokeColor=none;fillColor=none;align=left;verticalAlign=top;spacingLeft=4;spacingRight=4;overflow=hidden;rotatable=0;points=[[0,0.5],[1,0.5]];portConstraint=eastwest;whiteSpace=wrap;html=1;labelBackgroundColor=none;" parent="gvHln3FCuM-_E14BoruI-65" vertex="1">
          <mxGeometry y="128" width="410" height="122" as="geometry" />
        </mxCell>
        <mxCell id="gvHln3FCuM-_E14BoruI-70" value="&lt;div&gt;BookFactory&lt;/div&gt;" style="swimlane;fontStyle=1;align=center;verticalAlign=top;childLayout=stackLayout;horizontal=1;startSize=26;horizontalStack=0;resizeParent=1;resizeParentMax=0;resizeLast=0;collapsible=1;marginBottom=0;whiteSpace=wrap;html=1;labelBackgroundColor=none;" parent="1" vertex="1">
          <mxGeometry x="-100" y="480" width="500" height="160" as="geometry" />
        </mxCell>
        <mxCell id="gvHln3FCuM-_E14BoruI-71" value="- fileName: QString" style="text;strokeColor=none;fillColor=none;align=left;verticalAlign=top;spacingLeft=4;spacingRight=4;overflow=hidden;rotatable=0;points=[[0,0.5],[1,0.5]];portConstraint=eastwest;whiteSpace=wrap;html=1;labelBackgroundColor=none;" parent="gvHln3FCuM-_E14BoruI-70" vertex="1">
          <mxGeometry y="26" width="500" height="24" as="geometry" />
        </mxCell>
        <mxCell id="gvHln3FCuM-_E14BoruI-72" value="" style="line;strokeWidth=1;fillColor=none;align=left;verticalAlign=middle;spacingTop=-1;spacingLeft=3;spacingRight=3;rotatable=0;labelPosition=right;points=[];portConstraint=eastwest;labelBackgroundColor=none;" parent="gvHln3FCuM-_E14BoruI-70" vertex="1">
          <mxGeometry y="50" width="500" height="8" as="geometry" />
        </mxCell>
        <mxCell id="gvHln3FCuM-_E14BoruI-73" value="&lt;div&gt;+ &lt;u&gt;getInstance(): BookFactory&lt;/u&gt;&lt;/div&gt;+ createBook(title: QString, authors: QStringList, isbn: QString, publicationDate: QDate)&lt;div&gt;&lt;br&gt;&lt;/div&gt;&lt;div&gt;- BookFactory()&lt;/div&gt;&lt;div&gt;- BookFactory(BookFactory&amp;amp;) = delete&lt;/div&gt;&lt;div&gt;- &amp;amp;operator=(BookFactory&amp;amp;) = delete: BookFactory&lt;/div&gt;&lt;div&gt;&lt;br&gt;&lt;/div&gt;" style="text;strokeColor=none;fillColor=none;align=left;verticalAlign=top;spacingLeft=4;spacingRight=4;overflow=hidden;rotatable=0;points=[[0,0.5],[1,0.5]];portConstraint=eastwest;whiteSpace=wrap;html=1;labelBackgroundColor=none;" parent="gvHln3FCuM-_E14BoruI-70" vertex="1">
          <mxGeometry y="58" width="500" height="102" as="geometry" />
        </mxCell>
        <mxCell id="gvHln3FCuM-_E14BoruI-74" value="&lt;div&gt;BookProxyModel&lt;/div&gt;" style="swimlane;fontStyle=1;align=center;verticalAlign=top;childLayout=stackLayout;horizontal=1;startSize=26;horizontalStack=0;resizeParent=1;resizeParentMax=0;resizeLast=0;collapsible=1;marginBottom=0;whiteSpace=wrap;html=1;labelBackgroundColor=none;" parent="1" vertex="1">
          <mxGeometry x="610" y="-170" width="500" height="90" as="geometry" />
        </mxCell>
        <mxCell id="gvHln3FCuM-_E14BoruI-76" value="" style="line;strokeWidth=1;fillColor=none;align=left;verticalAlign=middle;spacingTop=-1;spacingLeft=3;spacingRight=3;rotatable=0;labelPosition=right;points=[];portConstraint=eastwest;labelBackgroundColor=none;" parent="gvHln3FCuM-_E14BoruI-74" vertex="1">
          <mxGeometry y="26" width="500" height="8" as="geometry" />
        </mxCell>
        <mxCell id="gvHln3FCuM-_E14BoruI-77" value="+ BookProxyModel(parent: QObject)&lt;div&gt;+ setFilterText(filterText: QString)&lt;/div&gt;" style="text;strokeColor=none;fillColor=none;align=left;verticalAlign=top;spacingLeft=4;spacingRight=4;overflow=hidden;rotatable=0;points=[[0,0.5],[1,0.5]];portConstraint=eastwest;whiteSpace=wrap;html=1;labelBackgroundColor=none;" parent="gvHln3FCuM-_E14BoruI-74" vertex="1">
          <mxGeometry y="34" width="500" height="56" as="geometry" />
        </mxCell>
        <mxCell id="gvHln3FCuM-_E14BoruI-78" value="&lt;div&gt;BookView&lt;/div&gt;" style="swimlane;fontStyle=1;align=center;verticalAlign=top;childLayout=stackLayout;horizontal=1;startSize=26;horizontalStack=0;resizeParent=1;resizeParentMax=0;resizeLast=0;collapsible=1;marginBottom=0;whiteSpace=wrap;html=1;labelBackgroundColor=none;" parent="1" vertex="1">
          <mxGeometry x="1050" y="-610" width="400" height="98" as="geometry" />
        </mxCell>
        <mxCell id="gvHln3FCuM-_E14BoruI-79" value="- tableView: QTableView&lt;div&gt;- model: BookTableModel&lt;/div&gt;" style="text;strokeColor=none;fillColor=none;align=left;verticalAlign=top;spacingLeft=4;spacingRight=4;overflow=hidden;rotatable=0;points=[[0,0.5],[1,0.5]];portConstraint=eastwest;whiteSpace=wrap;html=1;labelBackgroundColor=none;" parent="gvHln3FCuM-_E14BoruI-78" vertex="1">
          <mxGeometry y="26" width="400" height="34" as="geometry" />
        </mxCell>
        <mxCell id="gvHln3FCuM-_E14BoruI-80" value="" style="line;strokeWidth=1;fillColor=none;align=left;verticalAlign=middle;spacingTop=-1;spacingLeft=3;spacingRight=3;rotatable=0;labelPosition=right;points=[];portConstraint=eastwest;labelBackgroundColor=none;" parent="gvHln3FCuM-_E14BoruI-78" vertex="1">
          <mxGeometry y="60" width="400" height="8" as="geometry" />
        </mxCell>
        <mxCell id="gvHln3FCuM-_E14BoruI-81" value="&lt;div&gt;+ addBook(title: QString, authors: QString, isbn: QString, date: QString)&lt;/div&gt;" style="text;strokeColor=none;fillColor=none;align=left;verticalAlign=top;spacingLeft=4;spacingRight=4;overflow=hidden;rotatable=0;points=[[0,0.5],[1,0.5]];portConstraint=eastwest;whiteSpace=wrap;html=1;labelBackgroundColor=none;" parent="gvHln3FCuM-_E14BoruI-78" vertex="1">
          <mxGeometry y="68" width="400" height="30" as="geometry" />
        </mxCell>
        <mxCell id="we9DT2KBn4o6eFFRd77e-5" value="&lt;div&gt;MainWindow&lt;/div&gt;" style="swimlane;fontStyle=1;align=center;verticalAlign=top;childLayout=stackLayout;horizontal=1;startSize=26;horizontalStack=0;resizeParent=1;resizeParentMax=0;resizeLast=0;collapsible=1;marginBottom=0;whiteSpace=wrap;html=1;labelBackgroundColor=none;" vertex="1" parent="1">
          <mxGeometry x="1670" y="-375" width="500" height="360" as="geometry" />
        </mxCell>
        <mxCell id="we9DT2KBn4o6eFFRd77e-6" value="&lt;div&gt;- bookView: BookView&lt;/div&gt;&lt;div&gt;- bookModel: BookModel&lt;/div&gt;&lt;div&gt;- menuBar: QMenuBar&lt;/div&gt;&lt;div&gt;- statusBar: QStatusBar&lt;/div&gt;&lt;div&gt;- toolBar: QToolBar&lt;/div&gt;&lt;div&gt;- actionAddBook: QAction&lt;/div&gt;&lt;div&gt;- actionExportBooks: QAction&lt;/div&gt;&lt;div&gt;- actionSearchBook: QAction&lt;/div&gt;&lt;div&gt;- actionCloseApplicationWindow(): QAction&lt;/div&gt;&lt;div&gt;- lineEditSearch: QLineEdit&lt;/div&gt;&lt;div&gt;- pushButtonClear: QPushButton&lt;/div&gt;&lt;div&gt;- proxyModel: BookFilterProxyModel&lt;/div&gt;" style="text;strokeColor=none;fillColor=none;align=left;verticalAlign=top;spacingLeft=4;spacingRight=4;overflow=hidden;rotatable=0;points=[[0,0.5],[1,0.5]];portConstraint=eastwest;whiteSpace=wrap;html=1;labelBackgroundColor=none;" vertex="1" parent="we9DT2KBn4o6eFFRd77e-5">
          <mxGeometry y="26" width="500" height="184" as="geometry" />
        </mxCell>
        <mxCell id="we9DT2KBn4o6eFFRd77e-7" value="" style="line;strokeWidth=1;fillColor=none;align=left;verticalAlign=middle;spacingTop=-1;spacingLeft=3;spacingRight=3;rotatable=0;labelPosition=right;points=[];portConstraint=eastwest;labelBackgroundColor=none;" vertex="1" parent="we9DT2KBn4o6eFFRd77e-5">
          <mxGeometry y="210" width="500" height="8" as="geometry" />
        </mxCell>
        <mxCell id="we9DT2KBn4o6eFFRd77e-8" value="&lt;div&gt;&lt;div&gt;+ MainWindow(parent: QWidget)&lt;/div&gt;&lt;/div&gt;&lt;div&gt;+ ~MainWindow()&lt;/div&gt;&lt;div&gt;&lt;br&gt;&lt;/div&gt;&lt;div&gt;+ setupUI()&lt;div&gt;&lt;br&gt;&lt;/div&gt;&lt;/div&gt;&lt;div&gt;- on_actionAddBook_triggered()&lt;/div&gt;&lt;div&gt;- on_actionExportBooks_triggered()&lt;/div&gt;&lt;div&gt;- on_actionClearFilterTriggered()&lt;/div&gt;" style="text;strokeColor=none;fillColor=none;align=left;verticalAlign=top;spacingLeft=4;spacingRight=4;overflow=hidden;rotatable=0;points=[[0,0.5],[1,0.5]];portConstraint=eastwest;whiteSpace=wrap;html=1;labelBackgroundColor=none;" vertex="1" parent="we9DT2KBn4o6eFFRd77e-5">
          <mxGeometry y="218" width="500" height="142" as="geometry" />
        </mxCell>
        <mxCell id="we9DT2KBn4o6eFFRd77e-9" value="" style="endArrow=diamondThin;endFill=1;endSize=24;html=1;rounded=0;" edge="1" parent="1" source="gvHln3FCuM-_E14BoruI-74" target="we9DT2KBn4o6eFFRd77e-5">
          <mxGeometry width="160" relative="1" as="geometry">
            <mxPoint x="660" y="-470" as="sourcePoint" />
            <mxPoint x="820" y="-470" as="targetPoint" />
          </mxGeometry>
        </mxCell>
        <mxCell id="we9DT2KBn4o6eFFRd77e-10" value="" style="endArrow=diamondThin;endFill=1;endSize=24;html=1;rounded=0;" edge="1" parent="1" source="gvHln3FCuM-_E14BoruI-78" target="we9DT2KBn4o6eFFRd77e-5">
          <mxGeometry width="160" relative="1" as="geometry">
            <mxPoint x="1340" y="-680" as="sourcePoint" />
            <mxPoint x="1500" y="-680" as="targetPoint" />
          </mxGeometry>
        </mxCell>
        <mxCell id="we9DT2KBn4o6eFFRd77e-11" value="" style="endArrow=diamondThin;endFill=0;endSize=24;html=1;rounded=0;" edge="1" parent="1" source="gvHln3FCuM-_E14BoruI-51" target="gvHln3FCuM-_E14BoruI-74">
          <mxGeometry width="160" relative="1" as="geometry">
            <mxPoint x="780" y="490" as="sourcePoint" />
            <mxPoint x="940" y="490" as="targetPoint" />
          </mxGeometry>
        </mxCell>
        <mxCell id="we9DT2KBn4o6eFFRd77e-12" value="" style="endArrow=diamondThin;endFill=0;endSize=24;html=1;rounded=0;" edge="1" parent="1" source="gvHln3FCuM-_E14BoruI-1" target="gvHln3FCuM-_E14BoruI-51">
          <mxGeometry width="160" relative="1" as="geometry">
            <mxPoint x="520" y="-10" as="sourcePoint" />
            <mxPoint x="680" y="-10" as="targetPoint" />
          </mxGeometry>
        </mxCell>
        <mxCell id="we9DT2KBn4o6eFFRd77e-13" value="" style="endArrow=diamondThin;endFill=0;endSize=24;html=1;rounded=0;" edge="1" parent="1" source="gvHln3FCuM-_E14BoruI-1" target="gvHln3FCuM-_E14BoruI-70">
          <mxGeometry width="160" relative="1" as="geometry">
            <mxPoint x="140" y="140" as="sourcePoint" />
            <mxPoint x="300" y="140" as="targetPoint" />
          </mxGeometry>
        </mxCell>
        <mxCell id="we9DT2KBn4o6eFFRd77e-14" value="&lt;div&gt;BookTableModel&lt;/div&gt;" style="swimlane;fontStyle=1;align=center;verticalAlign=top;childLayout=stackLayout;horizontal=1;startSize=26;horizontalStack=0;resizeParent=1;resizeParentMax=0;resizeLast=0;collapsible=1;marginBottom=0;whiteSpace=wrap;html=1;labelBackgroundColor=none;" vertex="1" parent="1">
          <mxGeometry x="610" y="-450" width="500" height="160" as="geometry" />
        </mxCell>
        <mxCell id="we9DT2KBn4o6eFFRd77e-15" value="- books: QList" style="text;strokeColor=none;fillColor=none;align=left;verticalAlign=top;spacingLeft=4;spacingRight=4;overflow=hidden;rotatable=0;points=[[0,0.5],[1,0.5]];portConstraint=eastwest;whiteSpace=wrap;html=1;labelBackgroundColor=none;" vertex="1" parent="we9DT2KBn4o6eFFRd77e-14">
          <mxGeometry y="26" width="500" height="34" as="geometry" />
        </mxCell>
        <mxCell id="we9DT2KBn4o6eFFRd77e-16" value="" style="line;strokeWidth=1;fillColor=none;align=left;verticalAlign=middle;spacingTop=-1;spacingLeft=3;spacingRight=3;rotatable=0;labelPosition=right;points=[];portConstraint=eastwest;labelBackgroundColor=none;" vertex="1" parent="we9DT2KBn4o6eFFRd77e-14">
          <mxGeometry y="60" width="500" height="8" as="geometry" />
        </mxCell>
        <mxCell id="we9DT2KBn4o6eFFRd77e-17" value="+ addBook(book: Book): bool&lt;div&gt;+ rowCount(parent: QModelIndex): int&lt;/div&gt;&lt;div&gt;+ columnCount(parent: QModelIndex): int&lt;/div&gt;&lt;div&gt;+ data(index: QModelIndex, role: int): QVariant&lt;/div&gt;&lt;div&gt;+ headerData(section: int, orientation: Qt::Orientation, role: int) QVariant&lt;br&gt;&lt;div&gt;&lt;br&gt;&lt;/div&gt;&lt;/div&gt;" style="text;strokeColor=none;fillColor=none;align=left;verticalAlign=top;spacingLeft=4;spacingRight=4;overflow=hidden;rotatable=0;points=[[0,0.5],[1,0.5]];portConstraint=eastwest;whiteSpace=wrap;html=1;labelBackgroundColor=none;" vertex="1" parent="we9DT2KBn4o6eFFRd77e-14">
          <mxGeometry y="68" width="500" height="92" as="geometry" />
        </mxCell>
        <mxCell id="we9DT2KBn4o6eFFRd77e-18" value="" style="endArrow=diamondThin;endFill=1;endSize=24;html=1;rounded=0;" edge="1" parent="1" source="we9DT2KBn4o6eFFRd77e-14" target="gvHln3FCuM-_E14BoruI-74">
          <mxGeometry width="160" relative="1" as="geometry">
            <mxPoint x="380" y="-320" as="sourcePoint" />
            <mxPoint x="540" y="-320" as="targetPoint" />
          </mxGeometry>
        </mxCell>
      </root>
    </mxGraphModel>
  </diagram>
</mxfile>
